<?xml version="1.0" encoding="utf-8"?>
<!-- Generator: Adobe Illustrator 16.0.4, SVG Export Plug-In . SVG Version: 6.00 Build 0)  -->
<!DOCTYPE svg PUBLIC "-//W3C//DTD SVG 1.1//EN" "http://www.w3.org/Graphics/SVG/1.1/DTD/svg11.dtd">
<svg version="1.1" id="Layer_1" xmlns="http://www.w3.org/2000/svg" xmlns:xlink="http://www.w3.org/1999/xlink" x="0px" y="0px"
	 width="120px" height="120px" viewBox="0 0 120 120" enable-background="new 0 0 120 120" xml:space="preserve">
<line fill="none" stroke="#124676" stroke-width="6" stroke-linecap="round" stroke-miterlimit="10" x1="59.799" y1="5.254" x2="59.811" y2="63.559"/>
<path fill="none" stroke="#124676" stroke-width="6" stroke-linecap="round" stroke-miterlimit="10" d="M71.761,46.235
	c5.594,3.78,9.273,10.182,9.273,17.442c0,11.615-9.419,21.031-21.032,21.031c-11.618,0-21.032-9.416-21.032-21.031
	c0-6.458,2.909-12.237,7.489-16.095"/>
<path fill="none" stroke="#124676" stroke-width="6" stroke-linecap="round" stroke-miterlimit="10" d="M72.932,29.414
	c13.839,5.225,23.682,18.595,23.682,34.264c0,20.22-16.392,36.611-36.611,36.611c-20.222,0-36.61-16.392-36.61-36.611
	c0-14.456,8.373-26.953,20.538-32.906"/>
<path fill="none" stroke="#124676" stroke-width="6" stroke-linecap="round" stroke-miterlimit="10" d="M72.39,14.559
	c22.192,5.534,38.634,25.602,38.634,49.507c0,28.181-22.844,51.023-51.021,51.023c-28.18,0-51.022-22.843-51.022-51.023
	c0-22.643,14.749-41.84,35.164-48.51"/>
<circle fill="#124676" cx="60.002" cy="63.559" r="8.282"/>
<circle fill="#124676" cx="25.524" cy="53.55" r="6.621"/>
<circle fill="#124676" cx="88.229" cy="87.045" r="6.621"/>
</svg>
