<svg xmlns="http://www.w3.org/2000/svg" viewBox="0 0 340.16 279.15"><defs><style>.cls-1{fill:#d2e5f9;}.cls-2,.cls-4,.cls-6{fill:none;}.cls-2,.cls-3{stroke:#2b3747;}.cls-2,.cls-3,.cls-4,.cls-5,.cls-6{stroke-linecap:round;}.cls-2,.cls-4,.cls-5{stroke-miterlimit:10;}.cls-2,.cls-3,.cls-4,.cls-5{stroke-width:2px;}.cls-3,.cls-5{fill:#fff;}.cls-3,.cls-6{stroke-linejoin:round;}.cls-4,.cls-5{stroke:#4e5966;}.cls-6{stroke:#d2e5f9;stroke-width:3px;}</style></defs><title>illustration</title><g id="Layer_2" data-name="Layer 2"><g id="Layer_1-2" data-name="Layer 1"><circle class="cls-1" cx="175.92" cy="181.32" r="46"/><path class="cls-2" d="M142.79,140.36q.9-.68,1.84-1.31"/><path class="cls-2" d="M142.79,140.36"/><path class="cls-2" d="M134.39,148.44a47.29,47.29,0,0,1,6.58-6.65"/><path class="cls-2" d="M134.39,148.44"/><path class="cls-2" d="M144.63,139a47,47,0,1,1-12.28,12.1"/><polygon class="cls-3" points="180.08 183.3 155.68 204.5 162.76 173.33 186.15 151.54 180.08 183.3"/><circle class="cls-3" cx="170.92" cy="178.32" r="4"/><path class="cls-4" d="M182.68,248.52a71.3,71.3,0,1,1,52.24-100.13"/><path class="cls-4" d="M248.22,237a97.12,97.12,0,0,1-138.3,16.81"/><path class="cls-4" d="M76.58,200.91a97,97,0,1,1,185.19,11.42"/><line class="cls-4" x1="78.42" y1="206.82" x2="78.42" y2="215.82"/><line class="cls-4" x1="82.92" y1="211.32" x2="73.92" y2="211.32"/><line class="cls-4" x1="256.42" y1="220.82" x2="256.42" y2="229.82"/><line class="cls-4" x1="260.92" y1="225.32" x2="251.92" y2="225.32"/><circle class="cls-5" cx="128.42" cy="120.82" r="4"/><circle class="cls-5" cx="186.42" cy="273.82" r="4"/><polygon class="cls-4" points="236.42 154.2 240.42 161.13 232.42 161.13 236.42 154.2"/><line class="cls-6" x1="6.64" y1="262.71" x2="11.29" y2="277.65"/><line class="cls-6" x1="16.43" y1="267.86" x2="1.5" y2="272.51"/><line class="cls-6" x1="328.87" y1="17.91" x2="333.52" y2="32.84"/><line class="cls-6" x1="338.66" y1="23.05" x2="323.73" y2="27.7"/><circle class="cls-6" cx="45.15" cy="94.17" r="6.95" transform="translate(-25.96 17.69) rotate(-17.3)"/><circle class="cls-6" cx="324.37" cy="214.48" r="6.95" transform="translate(-49.11 106.18) rotate(-17.3)"/><polygon class="cls-6" points="167.84 1.5 178.06 10.93 164.79 15.06 167.84 1.5"/></g></g></svg>