<svg xmlns="http://www.w3.org/2000/svg" xmlns:xlink="http://www.w3.org/1999/xlink" width="68" height="68" viewBox="0 0 68 68">
    <defs>
        <ellipse id="a" cx="32" cy="31.955" rx="32" ry="31.955"/>
    </defs>
    <g fill="none" fill-rule="evenodd" transform="translate(2 2)">
        <mask id="b" fill="#fff">
            <use xlink:href="#a"/>
        </mask>
        <ellipse cx="32" cy="31.955" stroke="#FFF" stroke-width="2" rx="33" ry="32.955"/>
        <g mask="url(#b)">
            <path fill="#0D92FF" d="M38.579 23.17v3.736l-3.717 2.437h-5.165l-4.276-2.437v-3.735c0-.683.724-1.218 1.645-1.218h9.868c.922 0 1.645.535 1.645 1.218z"/>
            <path fill="#0B7CD9" d="M34.862 29.343H32v-7.39h4.934c.922 0 1.645.535 1.645 1.218v3.735l-3.717 2.437z"/>
            <path fill="#0D92FF" d="M25.421 26.058v8.212c0 .92.724 1.642 1.645 1.642h9.868c.922 0 1.645-.722 1.645-1.642v-8.212H25.42z"/>
            <path fill="#0B7CD9" d="M36.934 35.912H32v-9.854h6.579v8.212c0 .92-.723 1.642-1.645 1.642z"/>
            <path fill="#A4AFBD" d="M41.868 32.627H22.132c-2.73 0-4.935 2.201-4.935 4.928v7.654c0 .92.724 1.642 1.645 1.642h26.316c.921 0 1.645-.723 1.645-1.642v-7.654a4.924 4.924 0 0 0-4.935-4.928z"/>
            <path fill="#E0E4E8" d="M45.158 46.85H32V32.628h9.868c2.73 0 4.935 2.201 4.935 4.928v7.654c0 .92-.724 1.642-1.645 1.642z"/>
            <path fill="#8794A8" d="M53.25 48.066l-1.908 4.402-5.658 1.577L32 49.51l-12.599 4.172-6.743-1.215-1.908-4.402a1.81 1.81 0 0 1 0-1.314c.197-.427.56-.755.987-.887l19.737-6.57c.164-.065.329-.098.526-.098s.362.033.526.099l19.737 6.57c.428.13.79.46.987.886a1.81 1.81 0 0 1 0 1.314z"/>
            <path fill="#4F637E" d="M53.25 48.066l-1.908 4.402-5.658 1.577L32 49.51V39.197c.197 0 .362.033.526.099l19.737 6.57c.428.13.79.46.987.886a1.81 1.81 0 0 1 0 1.314z"/>
            <path fill="#0D92FF" d="M51.342 52.468l-5.065 12.255c-1.547-.362-3.224-.033-4.409 1.15a4.67 4.67 0 0 1-6.579 0A4.603 4.603 0 0 0 32 64.525a4.604 4.604 0 0 0-3.29 1.346 4.67 4.67 0 0 1-6.578 0c-1.185-1.182-2.862-1.51-4.408-1.15l-5.066-12.254 18.816-6.242a1.36 1.36 0 0 1 .526-.098c.197 0 .362.033.526.098l18.816 6.242z"/>
            <path fill="#0B7CD9" d="M51.342 52.468l-5.065 12.255c-1.547-.362-3.224-.033-4.409 1.15a4.67 4.67 0 0 1-6.579 0A4.603 4.603 0 0 0 32 64.525V46.128c.197 0 .362.033.526.099l18.816 6.24z"/>
        </g>
    </g>
</svg>
